<svg xmlns="http://www.w3.org/2000/svg" viewBox="0 0 25.99 26"><defs><style>.cls-1{fill:none;stroke:#4d4d4d;stroke-miterlimit:10;}.cls-1,.cls-2{fill-rule:evenodd;}.cls-2{fill:#4d4d4d;}</style></defs><g id="圖層_2" data-name="圖層 2"><g id="blog"><path class="cls-1" d="M6,.5H20A5.52,5.52,0,0,1,25.49,6V20A5.52,5.52,0,0,1,20,25.5H6A5.52,5.52,0,0,1,.5,20V6A5.52,5.52,0,0,1,6,.5Z"/><path class="cls-2" d="M14.2,10.17V9a.64.64,0,0,1,.66-.72h1.69V5.66H14.22a2.92,2.92,0,0,0-3.16,3.15v1.36H9.56v3h1.51v7.51h3V13.18h2.23l.1-1.19.18-1.82Z"/></g></g></svg>