<svg xmlns="http://www.w3.org/2000/svg" viewBox="0 0 26 26"><defs><style>.cls-1{fill:none;stroke:#4d4d4d;stroke-miterlimit:10;fill-rule:evenodd;}.cls-2{fill:#4d4d4d;}</style></defs><g id="圖層_2" data-name="圖層 2"><g id="blog"><path class="cls-1" d="M6,.5H20A5.52,5.52,0,0,1,25.5,6V20A5.52,5.52,0,0,1,20,25.5H6A5.52,5.52,0,0,1,.5,20V6A5.52,5.52,0,0,1,6,.5Z"/><rect class="cls-2" x="5.92" y="10.49" width="3.06" height="9.76"/><path class="cls-2" d="M17.26,10.28a2.1,2.1,0,0,0-.36,0,3.57,3.57,0,0,0-3,1.38l-.14.19v-1.3H10.83v9.76h3.06V15.69a4,4,0,0,1,.28-2A1.49,1.49,0,0,1,15.53,13a1.62,1.62,0,0,1,1.73,1.67h0v5.68h3.06V14C20.32,11.78,19.21,10.49,17.26,10.28Z"/><circle class="cls-2" cx="7.45" cy="7.45" r="1.77"/></g></g></svg>