<?xml version="1.0" encoding="utf-8"?>
<!-- Generator: Adobe Illustrator 25.4.2, SVG Export Plug-In . SVG Version: 6.00 Build 0)  -->
<svg version="1.1" id="Layer_1" xmlns="http://www.w3.org/2000/svg" xmlns:xlink="http://www.w3.org/1999/xlink" x="0px" y="0px"
	 viewBox="0 0 26 26" style="enable-background:new 0 0 26 26;" xml:space="preserve">
<style type="text/css">
	.st0{fill:none;stroke:#4D4D4D;stroke-miterlimit:10;}
	.st1{fill:#4D4D4D;}
</style>
<g>
	<path class="st1" d="M17.5,14.9L17.5,14.9c-1.8-0.8-2-0.9-2.2-0.6c-0.2,0.2-0.6,0.8-0.8,0.9c-0.1,0.2-0.3,0.2-0.5,0.1
		c-0.2-0.1-1-0.4-1.9-1.2c-0.7-0.6-1.2-1.4-1.3-1.7c-0.2-0.4,0.3-0.5,0.7-1.3c0.1-0.2,0-0.3,0-0.4c-0.1-0.1-0.5-1.3-0.7-1.8
		c-0.2-0.5-0.4-0.4-0.5-0.4c-0.5,0-0.8,0-1.1,0.3c-1.3,1.4-1,2.9,0.1,4.5c2.2,2.9,3.4,3.4,5.5,4.1c0.6,0.2,1.1,0.2,1.5,0.1
		c0.5-0.1,1.4-0.6,1.6-1.2c0.2-0.6,0.2-1,0.1-1.2C17.9,15,17.7,15,17.5,14.9L17.5,14.9z"/>
	<path class="st1" d="M19.9,6.1C13.7,0,3.4,4.4,3.3,12.9c0,1.7,0.4,3.4,1.3,4.8l-1.4,5l5.1-1.3c6.4,3.5,14.3-1.1,14.3-8.5
		C22.7,10.3,21.7,7.9,19.9,6.1L19.9,6.1z M21.1,12.9c0,6.2-6.8,10.1-12.2,6.9l-0.3-0.2l-3,0.8l0.8-3l-0.2-0.3
		C2.9,11.8,6.7,4.9,13.1,4.9c2.2,0,4.2,0.8,5.7,2.4C20.3,8.7,21.1,10.8,21.1,12.9L21.1,12.9z"/>
</g>
<g id="圖層_2_00000098919291153848915370000006904972731013345970_">
	<g id="blog_00000046299035399817917440000000035338483677017481_">
		<path class="st0" d="M6,0.5h14c3,0,5.5,2.5,5.5,5.5v14c0,3-2.5,5.5-5.5,5.5H6c-3,0-5.5-2.5-5.5-5.5V6C0.5,3,3,0.5,6,0.5z"/>
	</g>
</g>
</svg>
