<?xml version="1.0" encoding="utf-8"?>
<!-- Generator: Adobe Illustrator 24.0.0, SVG Export Plug-In . SVG Version: 6.00 Build 0)  -->
<svg version="1.1" id="Layer_1" xmlns="http://www.w3.org/2000/svg" xmlns:xlink="http://www.w3.org/1999/xlink" x="0px" y="0px"
	 viewBox="0 0 1036.2 350.8" style="enable-background:new 0 0 1036.2 350.8;" xml:space="preserve">
<style type="text/css">
	.st0{fill:#233062;}
	.st1{fill:#575756;}
</style>
<g>
	<path class="st0" d="M514.4,192.7c-6.6-0.3-12.6-1.3-18.6-3.2c4.3-2.8,7.4-5.5,10-8.7c1.1-1.4,1.3-3.4,0.5-5
		c-0.8-1.6-2.2-2.5-4-2.5h-30.5c-1.7,0-2.6,1.1-2.8,2.2c-0.1-0.1-0.1-0.2-0.2-0.3c-0.3-0.3-1-0.7-2-0.7h-13.7
		c0.3-1.5,0.6-3.4,0.7-5.9H465c1.7,0,2.7-1.2,2.7-2.5c0-1.2-0.9-2.4-2.7-2.4h-20c0.4-1.3,0.7-2.6,1-4h21.2c1.7,0,2.6-1.2,2.6-2.4
		c0-1.2-0.9-2.4-2.6-2.4h-33.4c-3.6,0-6.8,3-6.8,6.2v28.7c0,3.7,2.8,6.3,6.7,6.3H466c1.7,0,2.6-1.2,2.6-2.4c0-1.2-0.9-2.4-2.6-2.4
		h-31c-2.2,0-3.1-0.8-3.1-2.8v-25.8c0-2.1,0.9-2.9,3.2-2.9h5.9c-0.8,4.1-2.6,7.2-5.8,10c-1.4,1.1-1.4,2.7-0.7,3.6
		c0.7,0.9,2.2,1.3,3.7,0c1.8-1.6,3.2-3.1,4.3-4.6h6.5c-0.1,2.3-0.4,4.3-0.9,5.9h-12.7c-1.7,0-2.6,1.2-2.6,2.5c0,1.2,0.9,2.4,2.6,2.4
		h10.7c-1.9,3-4.8,5.2-9.1,7c-1,0.4-1.6,1.2-1.7,2c-0.1,0.8,0.2,1.6,0.9,2c0.8,0.6,1.8,0.6,2.9,0.2c4.1-1.8,8.4-4.1,11.2-8.6
		c3.8,2.7,7.1,5.2,10.7,8.2c0.9,0.7,1.9,0.9,2.8,0.6c0.8-0.3,1.4-1.1,1.5-2c0.1-1-0.3-1.9-1.2-2.6c-1.9-1.5-5.5-4.1-9.3-6.7h12
		c1.6,0,2.5-1.1,2.6-2.2c0.1,0.1,0.1,0.2,0.2,0.3c0.5,0.5,1.2,0.7,2,0.7h4.3c-0.6,0.3-1,0.7-1.2,1.3c-0.2,0.5-0.2,1.6,0.9,2.8
		c2.3,2.6,5.3,5.2,8.7,7.3c-3.5,1.3-8.1,2.4-13.4,3.1c-1.7,0.2-2.5,1.4-2.4,2.6c0.1,1.1,1.1,2.2,2.9,2.1c6.8-0.8,12.9-2.5,18.3-5
		c8.5,3.5,17,4.6,24.2,5.2h0c0.1,0,0.2,0,0.3,0c1,0,1.8-0.4,2.3-1.1c0.5-0.7,0.5-1.6,0.2-2.3C516.5,193.4,515.6,192.8,514.4,192.7z
		 M501.1,179c-2.6,2.9-6.8,6-11.1,8.2c-4.2-2.1-7.5-4.7-10.5-8.1c-0.4-0.4-0.8-0.7-1.2-0.9h22.6c0.4,0,0.6,0.1,0.6,0.1
		C501.4,178.4,501.4,178.6,501.1,179z"/>
	<path class="st0" d="M514.2,200.2h-90.1c-2,0-2.9,1.3-2.9,2.4c0,1.2,1,2.5,2.9,2.5h32.6c-0.1,3-0.4,5.4-0.9,7.3h-18.5
		c-3.4,0-6.2,2.8-6.2,6.1v21.6c0,3.5,2.6,6,6.4,6h62.9c3.7,0,6.6-2.6,6.6-6v-21.5c0-3.4-2.8-6.2-6.1-6.2h-20.7v-7.3h34
		c1.7,0,2.7-1.2,2.7-2.5C516.8,201.4,515.9,200.2,514.2,200.2z M502.3,236.7v2.2c0,1.8-0.6,2.4-2.6,2.4h-61c-2.2,0-2.8-0.5-2.8-2.5
		v-2.1H502.3z M439.2,224.5c-1.1,0.2-2,0.8-2.3,1.7c-0.3,0.8-0.2,1.6,0.3,2.3c0.3,0.4,1.1,1,2.6,0.8c11-1.7,16.6-5.1,19.5-12h16v5.2
		c0,3.5,2.6,5.9,6.4,5.9h9.9c2.4,0,4.5-1.2,6-3.3c0.6-0.8,1.5-2.9,1.6-3.2c0.3-0.9,0.2-1.8-0.3-2.4c-0.6-0.7-1.5-1-2.3-0.9
		c-0.8,0.1-1.5,0.7-1.8,1.6c-0.1,0.3-0.3,0.6-0.5,0.9c-0.1,0.2-0.2,0.4-0.3,0.6c-0.8,1.3-1.5,1.7-2.9,1.7h-8.6
		c-1.7,0-2.4-0.6-2.4-2.2v-3.9h19.5c1.6,0,2.6,1,2.6,2.6v11.9h-66.4v-12c0-1.6,0.9-2.5,2.6-2.5h15.4
		C451.3,222,446.7,223.5,439.2,224.5z M460.7,212.4c0.4-1.9,0.6-4.2,0.7-7.3h13.9v7.3H460.7z"/>
	<path class="st0" d="M466.8,170.9c0.2,0.8,1,1.5,2.2,1.5c0.3,0,0.6,0,1-0.2c6.5-2,10.1-5.5,10.9-10.7c0.3-1.7,1-2.4,2.6-2.4h8.5
		c1.4,0,2.2,0.8,2.2,2.3v3.2c0,2.9,2.7,5.4,5.8,5.4h6.5c3,0,6-2.2,6.4-4.9c0.3-1.7,0.4-3.1,0.5-5c0-1.7-1.2-2.6-2.4-2.6
		c-1.1,0-2.2,0.8-2.2,2.4c0,1.1-0.1,2.2-0.4,3.2c-0.3,1.4-1.1,2.1-2.5,2.1h-4.7c-1.7,0-2.4-0.6-2.4-2.2v-3.2c0-3.1-2.5-5.5-5.8-5.5
		H482c-3.2,0-5.3,2-5.6,5c-0.6,4.3-2.8,6.7-7.7,8.5C467,168.4,466.5,169.8,466.8,170.9z"/>
	<path class="st0" d="M629.6,205c-1,0.7-1.5,2.2-0.3,4c5,7.2,10.2,15.1,14.5,24.2c0.5,1.1,1.3,1.8,2.3,1.9c0.1,0,0.1,0,0.2,0
		c0.8,0,1.6-0.4,2-1.1c0.5-0.8,0.6-1.9,0.1-2.9c-4.2-9-9-17.2-14.9-25C632.4,204.4,630.6,204.3,629.6,205z"/>
	<path class="st0" d="M660.7,207.5c-1.5-1.7-3.3-1.6-4.3-0.8c-0.9,0.8-1.3,2.5,0.2,4.1c8.7,10.1,15.7,20.7,21,31.4
		c0.7,1.3,1.7,1.9,2.6,1.9c0.4,0,0.8-0.1,1.1-0.3c1.2-0.6,2-2.2,1.2-4.1C676.9,228.5,669.8,217.9,660.7,207.5z"/>
	<path class="st0" d="M661.8,222.8c-1.2-0.2-2.7,0.7-3.1,2.7c-0.2,1.3-0.9,5.8-2.1,9c-1.5,4.5-3.6,5.9-6.9,6.8
		c-6.6,1.6-16.7,1.2-25.2-1c-4.9-1.3-6.9-4.5-6.9-11.6v-20.5c0-0.9-0.3-1.7-0.7-2.2c-0.4-0.5-1.1-0.8-1.7-0.8c-1.3,0-2.6,1-2.6,3
		v20.3c0,6.2,0.9,13.7,8.3,16.1c5.7,1.8,12.7,2.8,19.2,2.8c4.2,0,8.2-0.4,11.4-1.3c4.9-1.3,8.2-4.6,9.8-9.8c1-3,1.7-6.8,2.3-10
		C664,224.2,662.9,223,661.8,222.8z"/>
	<path class="st0" d="M602.6,203h61.8c4.8,0,8.1-2.9,8.1-7.2v-32.2c0-4.3-2.9-7-7.7-7h-62.1c-5,0-8.1,2.8-8.1,7.2v32
		C594.7,200.1,597.9,203,602.6,203z M631.7,181.6v16.4h-29.1c-1.8,0-2.9-1-2.9-2.6v-13.8H631.7z M602.2,161.8h29.5v14.6h-32v-12.2
		C599.7,162,601.4,161.8,602.2,161.8z M636.8,176.4v-14.6h28c2,0,2.9,0.9,2.9,2.8v11.8H636.8z M636.8,197.9v-16.4h30.9v13.6
		c0,1.4-1,2.8-2.9,2.8H636.8z"/>
	<path class="st0" d="M602.6,206.2c-1.2-0.2-2.6,0.6-2.9,2.4c-2,12.1-6.1,21.3-13.7,30.7c-0.8,1-1.1,2.2-0.8,3.1
		c0.3,0.8,1,1.4,1.9,1.5c0.1,0,0.3,0,0.4,0c1,0,1.9-0.5,2.6-1.4l0,0c7.8-9.7,12.5-20.4,14.4-33C605,207.6,603.9,206.4,602.6,206.2z"
		/>
	<path class="st0" d="M846.6,175.5h-5.9v-6.9c0-3.5-2.8-7.2-7.6-7.2h-14.4v-7c0-3.3-4.9-3.3-4.9,0v7h-17.5c-1,0-1.6,0.4-1.9,0.7
		c-0.4,0.4-0.7,1-0.7,1.6c0,1.2,0.9,2.4,2.6,2.4h17.5v9.4h-26.4c-1.6,0-2.4,1.2-2.4,2.3s0.8,2.3,2.4,2.3h26.4v10h-18.7
		c-1.6,0-2.4,1.2-2.4,2.3s0.8,2.3,2.4,2.3h18.7v9.6h-18.5c-1.6,0-2.4,1.2-2.4,2.3s0.8,2.3,2.4,2.3h18.5v9.6h-21.4
		c-1.6,0-2.5,1.2-2.5,2.4c0,0.6,0.2,1.2,0.6,1.6c0.3,0.3,0.9,0.7,1.8,0.7h21.4v13.7c0,1.5,1.2,2.3,2.4,2.3s2.4-0.8,2.4-2.3v-13.7
		h24.8c1.6,0,2.4-1.2,2.4-2.4c0-1.1-0.8-2.3-2.4-2.3h-24.8v-9.6h21.6c1.6,0,2.4-1.2,2.4-2.4c0-1.1-0.8-2.3-2.4-2.3h-21.6v-9.6h14.2
		c4,0,7.8-3.7,7.8-7.7v-7h5.9c1.6,0,2.4-1.2,2.4-2.4S848.2,175.5,846.6,175.5z M818.7,175.5V166H832c2.3,0,3.8,1.3,3.8,3.4v6H818.7z
		 M835.8,180.1v6c0,2.7-2.1,4-4.2,4h-12.8v-10H835.8z"/>
	<path class="st0" d="M767.5,155.8c0.1-1.5-1.1-2.3-2.2-2.4c-1.2-0.1-2.5,0.6-2.6,2.1l-0.2,1.8c-1.2,13.3-2.7,29.8-10.8,45.9
		c-0.4,0.8-0.3,1.6,0.2,2.3c0.5,0.8,1.5,1.2,2.4,1.1c0.8-0.1,1.5-0.6,1.9-1.4c1.2-2.5,2.5-5.7,3.6-8.5v50.7c0,1.5,1.2,2.3,2.4,2.3
		s2.4-0.8,2.4-2.3l0-65.3C765.7,173.5,766.9,164.3,767.5,155.8z"/>
	<path class="st0" d="M845.7,240.1c-2.6,0-5.3,0-8,0c-13,0.1-26.5,0.2-35.9-2c-5.9-1.3-9.9-3.1-16.2-9.3c2.7-7.3,5.4-19.1,4.3-28.7
		c-0.4-3.8-2.8-6.3-6.1-6.3h-7.3c-0.4,0-0.9-0.1-1.1-0.4c-0.2-0.3-0.1-0.9,0.3-1.5c3-5.3,10.9-19.8,13.8-25.3c1-2,1.1-4.3,0.1-5.9
		c-0.8-1.4-2.3-2.1-4.1-2.1h-14.8c-1.6,0-2.5,1.2-2.5,2.3s0.8,2.3,2.5,2.3h13.1c0.5,0,1,0.2,1.1,0.5c0.2,0.3,0.1,0.6-0.1,1
		c-3.8,7.1-10.1,18.8-13.9,25.5c-1.2,2.1-1.3,4.2-0.4,5.8c0.9,1.6,2.8,2.4,5.2,2.4h6.6c1.9,0,2.4,1.1,2.6,3.1
		c0.8,7.1-0.9,16.7-3.1,22.9c-3.5-4.9-6.3-11.9-8.9-22c-0.4-1.8-1.9-2.4-3.1-2.1c-1.1,0.3-2.1,1.4-1.7,3c3,12.3,6.3,19.9,11.3,26.3
		c-2.9,6.2-7.5,12.2-12.4,16.3c-0.7,0.5-0.9,1.3-0.8,2.1c0.2,0.9,0.9,1.6,1.7,1.9c0.2,0.1,0.5,0.1,0.7,0.1c0.5,0,1-0.2,1.5-0.6
		c5.1-4.6,9.8-10.4,12.8-15.9c5.5,5.1,10.2,7.2,15.6,8.8c9.8,2.9,27.9,2.7,42.5,2.5l4.4,0c1.6,0,2.4-1.2,2.4-2.4
		C848.1,241.2,847.3,240.1,845.7,240.1z"/>
	<path class="st0" d="M1008.3,207.9c-0.8-0.3-1.8-0.1-2.5,0.6c-6.1,5.2-11.6,9.1-18.9,13.6c-0.9,0.6-1.5,1.5-1.4,2.5
		c0,0.9,0.5,1.7,1.3,2.1c0.2,0.1,0.6,0.2,1,0.2c0.4,0,1-0.1,1.6-0.5c7.4-4.8,13.1-8.9,19.6-14.2c0.8-0.6,1.1-1.5,1-2.3
		C1009.7,209,1009.1,208.2,1008.3,207.9z"/>
	<path class="st0" d="M1015.4,193.2c0.4-0.4,0.6-1,0.6-1.7c0-1.3-0.9-2.6-2.4-2.6h-10v-8.2c0-3.2-2.9-5.9-6.3-5.9h-24.7v-7.1h37.9
		c1.7,0,2.6-1.3,2.6-2.6c0-1.2-0.9-2.5-2.6-2.5h-39.3v-7.9c0-3.2-5-3.2-5,0v7.9h-31.3c-4.8,0-8.2,3.6-8.2,8.8v28
		c0,10.7-1.4,26.6-8,42.2c-0.6,1.4,0.1,2.6,1.1,3.1c1.1,0.5,2.5,0.3,3.1-1.1c5.8-12.7,8.7-27.6,8.7-44.2V194h35.8v9.4h-28.8
		c-1,0-1.5,0.4-1.9,0.8c-0.4,0.4-0.6,1-0.6,1.7c0,1.2,0.9,2.5,2.5,2.5h28.8v28.8c0,4.9-3.2,6.6-4.9,6.7c-4.2,0.4-8.9-0.7-13-2.8
		c-0.9-0.5-1.8-0.4-2.5,0c-0.7,0.5-1.1,1.3-1.1,2.1c0,0.9,0.7,1.8,1.7,2.3c4.4,2.2,9,3.4,13,3.4c1.4,0,2.7-0.1,3.9-0.4
		c5.8-1.3,7.9-6.3,7.9-10.6v-17.6c8.7,11.3,22.4,21.1,38.9,27.7c1.5,0.6,2.7-0.2,3.1-1.3c0.4-1.1,0.1-2.6-1.4-3.2
		c-18.5-7.6-31.8-17.8-40.6-31.4v-3.8h24.8c3.3,0,6.2-3.1,6.2-6.6V194h10C1014.5,194,1015.1,193.6,1015.4,193.2z M972.5,188.9v-9.1
		h23.9c1.4,0,2.3,0.8,2.3,2.1v7H972.5z M998.7,194v6.9c0,1.1-0.4,2.5-2.2,2.5h-24V194H998.7z M936.2,177.3c0,1.3,0.7,2.5,2.1,2.5
		h29.2v9.1h-35.8v-16.3c0-3.6,1.2-5,4.4-5h31.5v7.1h-29.2C937.1,174.8,936.2,175.8,936.2,177.3z"/>
	<path class="st0" d="M945.1,219.3c2.6,1.8,5.4,3.6,7.9,5.3c0.5,0.4,1.1,0.5,1.6,0.5c0.8,0,1.5-0.4,1.9-1c0.7-1,0.7-2.6-0.6-3.6h0
		c-3.3-2.3-7.4-5-11.1-7.3c-2.1-1.4-4-2.6-5.5-3.6c-0.8-0.6-1.8-0.7-2.7-0.3c-0.8,0.4-1.3,1.1-1.4,1.9c0,0.5,0.1,1.5,1.4,2.3
		C938.9,215.2,941.9,217.2,945.1,219.3z"/>
	<path class="st0" d="M964.4,224.1c-0.6-0.9-1.9-1.4-3.2-0.5c-8.1,5.8-17,10.9-28.1,16.1c-1.7,0.8-2.1,2.4-1.6,3.5
		c0.3,0.7,1.1,1.3,2.1,1.3c0.5,0,1-0.1,1.6-0.4c9.5-4.3,19.2-9.8,28.7-16.5C965.2,226.6,965.1,225.1,964.4,224.1z"/>
</g>
<g>
	<path class="st0" d="M277.4,173.5c-11.8,0.1-22.9,2.7-32.9,7.3l-0.2-0.1c-15.3,7-33.9,6-48.7-4.4c-14.9-10.4-22.2-27.5-20.9-44.3
		l-0.1-0.1c0.2-2.2,0.4-4.5,0.3-6.9c-0.1-43.9-35.9-79.4-79.9-79.2c-43.9,0.2-79.4,36-79.2,79.9c0.2,44,35.9,79.4,79.9,79.3
		c11.8-0.1,22.9-2.8,33-7.4l0.1,0.1c15.4-7,33.9-6,48.8,4.4c14.8,10.4,22.2,27.5,20.8,44.3l0.1,0c-0.3,2.3-0.3,4.6-0.3,7
		c0.2,43.9,35.9,79.4,79.9,79.2c44-0.2,79.4-36,79.2-79.9C357.1,208.8,321.5,173.4,277.4,173.5z M164.2,178.4l-19.8,3.4
		c-13.6,2.5-26.5-6.6-29-20.2c-2.4-13.7,6.7-26.6,20.4-29c13.6-2.3,26.5,6.7,29,20.3l3.5,19.7C168.7,175.3,166.8,177.9,164.2,178.4z
		 M269.1,286.1c-24.6,4.3-48-12.1-52.4-36.7l-6.2-35.7c-0.9-4.9,2.4-9.6,7.3-10.5l35.7-6.3l0,0c24.6-4.3,48.1,12.1,52.4,36.7
		C310.1,258.3,293.7,281.7,269.1,286.1z"/>
</g>
<g>
	<path class="st0" d="M210,18.8h54.8v14.3h-38.2v24h30.8v14.3h-30.8V96h40.2v14.3H210V18.8z"/>
	<path class="st0" d="M321.1,17.3c22.3,0,33.8,12.5,33.8,12.5l-8,12.4c0,0-10.4-9.7-25-9.7c-19.3,0-30.7,14.4-30.7,31.5
		c0,17.4,11.7,32.7,30.8,32.7c15.9,0,26.6-11.6,26.6-11.6l8.8,12c0,0-12.6,14.8-36,14.8c-28,0-47.3-20.8-47.3-47.7
		C274,37.6,294.1,17.3,321.1,17.3z"/>
	<path class="st0" d="M397.5,18.8h16.6v38.8H456V18.8h16.6v91.5H456V71.9h-41.9v38.4h-16.6V18.8z"/>
	<path class="st0" d="M518.8,43c18.9,0,29.1,13.8,29.1,31.2c0,1.9-0.4,6.3-0.4,6.3h-45.4c1,11.5,9.9,17.4,19.7,17.4
		c10.6,0,18.9-7.2,18.9-7.2l6.3,11.7c0,0-10.1,9.4-26.4,9.4c-21.8,0-35.3-15.7-35.3-34.4C485.4,57.2,499.2,43,518.8,43z M531.4,69.3
		c-0.3-8.9-5.8-13.7-13-13.7c-8.4,0-14.2,5.2-15.7,13.7H531.4z"/>
	<path class="st0" d="M591.6,69.1h2.2v-0.9c0-8.6-5.4-11.6-12.6-11.6c-9.4,0-18,6.3-18,6.3l-6.2-11.7c0,0,10.2-8.1,25.8-8.1
		c17.3,0,27.3,9.5,27.3,26.2v41.1H595v-5.4c0-2.6,0.3-4.6,0.3-4.6H595c0.1,0-5,11.6-20,11.6c-11.7,0-22.3-7.3-22.3-20.5
		C552.7,70.5,580.9,69.1,591.6,69.1z M579.1,99.1c8.6,0,14.8-9.3,14.8-17.3v-1.5h-2.8c-8.4,0-21.9,1.2-21.9,10.3
		C569.2,95,572.4,99.1,579.1,99.1z"/>
	<path class="st0" d="M622.9,18.8h16.2v68.6c0,7.2,2.4,9,6.7,9c1.3,0,2.4-0.1,2.4-0.1v14.3c0,0-2.4,0.4-5.2,0.4
		c-9,0-20.2-2.3-20.2-21.1V18.8z"/>
	<path class="st0" d="M659.7,58.6h-8.5v-13h8.9V26.7h16v18.9h15v13h-15v25.5c0,10.8,8.5,12.4,13,12.4c1.8,0,3-0.3,3-0.3v14.3
		c0,0-1.9,0.4-5,0.4c-9.2,0-27.3-2.7-27.3-24.7V58.6z"/>
	<path class="st0" d="M702.2,18.8h16.4v31.7c0,3.2-0.3,5.5-0.3,5.5h0.3c3.2-6.3,11.2-13,22.7-13c14.6,0,22.8,7.6,22.8,25v42.3h-16.2
		V71.4c0-8-2.1-13.4-10.4-13.4c-8.6,0-15.3,5.7-17.8,13.7c-0.8,2.6-1,5.4-1,8.5v30.2h-16.4V18.8z"/>
	<path class="st0" d="M808.9,43c17.1,0,25.3,9.8,25.3,9.8L827,64.1c0,0-6.8-7.1-17.1-7.1c-12.1,0-20,9.2-20,20.4
		c0,11.1,8,20.6,20.5,20.6c11.1,0,19.3-8.4,19.3-8.4l6.3,11.6c0,0-9.4,10.7-27.1,10.7c-21.8,0-35.7-15.3-35.7-34.4
		C773.2,58.8,787.2,43,808.9,43z"/>
	<path class="st0" d="M878.4,69.1h2.2v-0.9c0-8.6-5.4-11.6-12.6-11.6c-9.4,0-18,6.3-18,6.3l-6.2-11.7c0,0,10.2-8.1,25.8-8.1
		c17.3,0,27.3,9.5,27.3,26.2v41.1h-15.1v-5.4c0-2.6,0.3-4.6,0.3-4.6h-0.3c0.1,0-5,11.6-20,11.6c-11.7,0-22.3-7.3-22.3-20.5
		C839.5,70.5,867.7,69.1,878.4,69.1z M865.9,99.1c8.6,0,14.8-9.3,14.8-17.3v-1.5h-2.8c-8.4,0-21.9,1.2-21.9,10.3
		C856,95,859.2,99.1,865.9,99.1z"/>
	<path class="st0" d="M910.6,44.6h15.7v11.3c0,2.4-0.3,4.6-0.3,4.6h0.3c3-9.4,10.8-16.9,20.9-16.9c1.5,0,3,0.3,3,0.3v16.1
		c0,0-1.7-0.3-3.9-0.3c-7,0-14.8,4-17.9,13.8c-1,3.2-1.4,6.8-1.4,10.7v26h-16.4V44.6z"/>
	<path class="st0" d="M986.8,43c18.9,0,29.1,13.8,29.1,31.2c0,1.9-0.4,6.3-0.4,6.3h-45.4c1,11.5,9.9,17.4,19.7,17.4
		c10.6,0,18.9-7.2,18.9-7.2l6.3,11.7c0,0-10.1,9.4-26.4,9.4c-21.8,0-35.3-15.7-35.3-34.4C953.4,57.2,967.2,43,986.8,43z M999.5,69.3
		c-0.3-8.9-5.8-13.7-13-13.7c-8.4,0-14.2,5.2-15.7,13.7H999.5z"/>
</g>
<g>
	<path class="st1" d="M525.8,286.2h4.5v14.2h16.8v-14.2h4.5v32.3h-4.5v-14.2h-16.8v14.2h-4.5V286.2z"/>
	<path class="st1" d="M560.4,286.2h4.5v13.6h4.8l8.2-13.6h5l-9.4,15.3v0.1l10,16.9h-5.1l-8.6-14.8H565v14.8h-4.5V286.2z"/>
	<path class="st1" d="M589,286.2h18.8v3.9h-14.2v10.1h11.6v3.9h-11.6v10.4h15v3.9H589V286.2z"/>
	<path class="st1" d="M622.4,309.5c0,0-0.4,0.7-0.7,1.3l-4.9,7.7h-5l7.9-11.9l-7.5-11.3h5.1l4.3,7.1c0.4,0.6,0.8,1.4,0.8,1.4h0.1
		c0,0,0.4-0.8,0.8-1.4l4.3-7.1h5.1l-7.5,11.3l7.9,11.9h-5l-4.9-7.7C622.9,310.2,622.5,309.5,622.4,309.5L622.4,309.5z"/>
	<path class="st1" d="M650.3,311.3c0,0,3.4,3.5,8.2,3.5c3,0,5.6-1.7,5.6-4.8c0-7-15.7-5.5-15.7-15.4c0-5,4.4-9,10.4-9
		c6,0,9.2,3.3,9.2,3.3l-2.1,3.8c0,0-3-2.8-7.1-2.8c-3.4,0-5.9,2.2-5.9,4.7c0,6.7,15.7,4.9,15.7,15.4c0,5-3.8,9.1-10.3,9.1
		c-6.9,0-10.7-4.3-10.7-4.3L650.3,311.3z"/>
	<path class="st1" d="M675.2,299.2h-3v-3.6h3.2V289h4.3v6.7h5.6v3.6h-5.6v10.3c0,4.6,3.3,5.2,4.9,5.2c0.6,0,1.1-0.1,1.1-0.1v3.9
		c0,0-0.6,0.1-1.6,0.1c-3,0-8.9-0.9-8.9-8.7V299.2z"/>
	<path class="st1" d="M701.4,294.8c6.9,0,12.5,5.1,12.5,12.1c0,7.1-5.6,12.2-12.5,12.2c-6.9,0-12.5-5.1-12.5-12.2
		C688.9,299.9,694.5,294.8,701.4,294.8z M701.4,315.2c4.4,0,8-3.5,8-8.3c0-4.8-3.6-8.2-8-8.2c-4.4,0-8,3.4-8,8.2
		C693.5,311.7,697.1,315.2,701.4,315.2z"/>
	<path class="st1" d="M730,294.8c5.8,0,8.7,3.4,8.7,3.4l-2.1,3.1c0,0-2.5-2.7-6.4-2.7c-4.7,0-8.1,3.5-8.1,8.2c0,4.7,3.4,8.3,8.2,8.3
		c4.3,0,7.1-3.1,7.1-3.1l1.8,3.3c0,0-3.2,3.7-9.3,3.7c-7.3,0-12.4-5.2-12.4-12.1C717.6,300,722.7,294.8,730,294.8z"/>
	<path class="st1" d="M744.3,286.2h4.4v17.7h3.3l6.3-8.5h5l-7.7,10.2v0.1l8.6,12.9H759l-7-10.9h-3.3v10.9h-4.4V286.2z"/>
	<path class="st1" d="M795.3,285.6c7.8,0,11.8,4.3,11.8,4.3l-2.2,3.4c0,0-3.8-3.5-9.3-3.5c-7.2,0-12,5.5-12,12.4
		c0,6.9,4.8,12.8,12,12.8c6.1,0,10-4.2,10-4.2l2.4,3.3c0,0-4.4,5.1-12.5,5.1c-9.7,0-16.5-7.4-16.5-16.9
		C778.8,292.8,785.9,285.6,795.3,285.6z"/>
	<path class="st1" d="M824,294.8c6.9,0,12.5,5.1,12.5,12.1c0,7.1-5.6,12.2-12.5,12.2c-6.9,0-12.5-5.1-12.5-12.2
		C811.5,299.9,817.1,294.8,824,294.8z M824,315.2c4.4,0,8-3.5,8-8.3c0-4.8-3.6-8.2-8-8.2c-4.4,0-8,3.4-8,8.2
		C816,311.7,819.7,315.2,824,315.2z"/>
	<path class="st1" d="M850.8,294.8c5.4,0,7.1,3.7,7.1,3.7h0.1c0,0-0.1-0.7-0.1-1.6v-10.7h4.4v32.3h-4.2v-2.2c0-0.9,0-1.6,0-1.6h-0.1
		c0,0-1.9,4.3-7.6,4.3c-6.3,0-10.2-4.9-10.2-12.1C840.3,299.5,844.6,294.8,850.8,294.8z M851.4,315.2c3.4,0,6.7-2.4,6.7-8.3
		c0-4.1-2.2-8.2-6.5-8.2c-3.7,0-6.7,3-6.7,8.3C844.8,311.9,847.5,315.2,851.4,315.2z"/>
	<path class="st1" d="M879.3,294.8c6.5,0,10,4.9,10,10.9c0,0.6-0.1,1.9-0.1,1.9h-16.9c0.2,5.1,3.8,7.6,8,7.6c4,0,6.9-2.7,6.9-2.7
		l1.8,3.3c0,0-3.4,3.3-9,3.3c-7.3,0-12.3-5.3-12.3-12.1C867.7,299.5,872.7,294.8,879.3,294.8z M884.8,304.2c-0.1-4-2.6-5.9-5.6-5.9
		c-3.4,0-6.1,2.1-6.8,5.9H884.8z"/>
	<path class="st1" d="M895.6,295.3h4.7v4.7h-4.7V295.3z M895.6,313.8h4.7v4.7h-4.7V313.8z"/>
	<path class="st1" d="M918.9,316c0-11.5,15.8-13.2,15.8-20.8c0-3.2-2.4-5.4-5.8-5.4c-4.3,0-6.5,4.1-6.5,4.1l-3.3-2.2
		c0,0,2.9-6.1,10.2-6.1c6,0,10.2,3.7,10.2,9.3c0,10.6-15.4,12.3-15.5,19.6h16v3.9h-20.8C919,317.6,918.9,316.8,918.9,316z"/>
	<path class="st1" d="M945.2,314.6h7.1v-20.9c0-1,0-2,0-2h-0.1c0,0-0.4,0.7-1.6,1.9l-3,3l-2.7-2.8l7.7-7.5h4v28.4h7.1v3.9h-18.6
		V314.6z"/>
	<path class="st1" d="M969.3,311.2c0,0,3.2,3.5,7.8,3.5c3.6,0,6.6-2.4,6.6-5.9c0-4-3.5-6-7.5-6H974l-1.1-2.4l7.1-8.3
		c1.1-1.2,2-2.1,2-2.1V290c0,0-1,0.1-2.7,0.1h-10.9v-3.9h19.3v2.9l-8.8,10.1c4.3,0.5,9.5,3.2,9.5,9.5c0,5.5-4.4,10.4-11,10.4
		c-6.6,0-10.5-4.4-10.5-4.4L969.3,311.2z"/>
	<path class="st1" d="M998.8,300.5c-2.1-1.5-3.6-3.5-3.6-6.5c0-4.3,3.3-8.5,10.1-8.5c6,0,10.2,3.3,10.2,8.7c0,4.3-3.4,8-3.8,8.4
		c2.5,1.5,4.4,3.5,4.4,6.9c0,5-4.4,9.5-11.1,9.5c-6.5,0-11.3-4-11.3-9.9C993.6,304.2,997.9,301.1,998.8,300.5z M1002.1,302.5
		c-1.1,0.7-3.9,2.9-3.9,6.4c0,3.7,3.2,6.1,6.6,6.1c3.4,0,6.4-2.2,6.4-5.5C1011.3,305.9,1006.5,304.6,1002.1,302.5z M1008.1,300.9
		c0.5-0.5,2.8-3,2.8-6.4c0-3-2.4-4.9-5.8-4.9c-3.6,0-5.5,2-5.5,4.5C999.7,297.7,1004,299.1,1008.1,300.9z"/>
</g>
<g>
	<path class="st0" d="M1016,26.2c0,5.1-4,9-9.1,9c-5.1,0-9.2-4-9.2-9c0-4.9,4.1-8.9,9.2-8.9C1012,17.3,1016,21.2,1016,26.2z
		 M999.9,26.2c0,4,2.9,7.1,7,7.1c3.9,0,6.8-3.2,6.8-7.1c0-4-2.9-7.2-6.8-7.2C1002.9,19.1,999.9,22.3,999.9,26.2z M1005.4,30.8h-2.1
		v-8.9c0.8-0.2,2-0.3,3.4-0.3c1.7,0,2.4,0.3,3.1,0.7c0.5,0.4,0.9,1.1,0.9,2c0,1-0.8,1.7-1.8,2.1v0.1c0.9,0.3,1.4,1,1.6,2.2
		c0.3,1.4,0.4,1.9,0.7,2.2h-2.2c-0.3-0.3-0.4-1.1-0.7-2.2c-0.2-1-0.7-1.4-1.8-1.4h-1V30.8z M1005.5,25.8h1c1.1,0,2.1-0.4,2.1-1.3
		c0-0.8-0.6-1.4-1.9-1.4c-0.5,0-0.9,0.1-1.1,0.1V25.8z"/>
</g>
</svg>
